<svg width="150" height="66" viewBox="0 0 150 66" fill="none" xmlns="http://www.w3.org/2000/svg">
<path d="M51.11 36.1299C51.11 38.0699 50.81 39.4599 50.21 40.2999C49.61 41.1399 48.51 41.5599 46.91 41.5599H29.06C27.94 41.5599 27.05 41.2099 26.39 40.5099C25.75 39.8099 25.43 38.8499 25.43 37.6299V0.909897L25.79 0.519897H49.94C50.04 0.999897 50.1 1.4599 50.12 1.8999C50.14 2.3199 50.15 2.7099 50.15 3.0699C50.15 3.4299 50.11 3.8799 50.03 4.4199C49.95 4.9399 49.82 5.4399 49.64 5.9199H35.42C34.98 5.9199 34.41 5.9199 33.71 5.9199C33.03 5.9199 32.34 5.9099 31.64 5.8899C31.64 6.6899 31.65 7.3499 31.67 7.8699C31.69 8.3899 31.7 9.0499 31.7 9.8499V18.1899C32.4 18.1899 33.08 18.1899 33.74 18.1899C34.42 18.1699 34.98 18.1599 35.42 18.1599H46.7C46.8 18.5799 46.88 19.0399 46.94 19.5399C47 20.0399 47.03 20.4599 47.03 20.7999C47.03 21.1599 47 21.5899 46.94 22.0899C46.88 22.5699 46.8 23.0299 46.7 23.4699H35.42C34.98 23.4699 34.42 23.4699 33.74 23.4699C33.08 23.4499 32.4 23.4299 31.7 23.4099V33.2199C31.7 33.7599 31.69 34.2599 31.67 34.7199C31.65 35.1799 31.64 35.6899 31.64 36.2499C32.22 36.2099 32.83 36.1799 33.47 36.1599C34.11 36.1399 34.82 36.1299 35.6 36.1299H51.11ZM56.1256 33.4299C56.1256 31.1499 56.6256 29.2799 57.6256 27.8199C58.6456 26.3599 60.0156 25.2799 61.7356 24.5799C63.4756 23.8599 65.4256 23.4999 67.5856 23.4999C68.4256 23.4999 69.3456 23.5299 70.3456 23.5899C71.3656 23.6299 72.3756 23.7199 73.3756 23.8599V21.5499C73.3756 19.6699 72.9456 18.3199 72.0856 17.4999C71.2256 16.6799 70.0256 16.2699 68.4856 16.2699C66.9656 16.2699 65.3956 16.4999 63.7756 16.9599C62.1756 17.3999 60.5956 17.9299 59.0356 18.5499C58.5356 18.0499 58.1156 17.3699 57.7756 16.5099C57.4356 15.6299 57.2456 14.7899 57.2056 13.9899C58.9056 13.2699 60.8956 12.6299 63.1756 12.0699C65.4756 11.5099 67.6456 11.2299 69.6856 11.2299C72.6256 11.2299 74.9956 12.0499 76.7956 13.6899C78.5956 15.3299 79.4956 17.8699 79.4956 21.3099V33.6099C79.4956 34.7299 79.5956 35.7199 79.7956 36.5799C80.0156 37.4199 80.4756 38.1399 81.1756 38.7399C80.9956 39.2999 80.6856 39.8999 80.2456 40.5399C79.8056 41.1599 79.3356 41.6299 78.8356 41.9499C77.5956 41.7099 76.5856 41.2499 75.8056 40.5699C75.0456 39.8899 74.4656 39.0899 74.0656 38.1699C72.9856 39.2099 71.6856 40.1599 70.1656 41.0199C68.6456 41.8599 66.9056 42.2799 64.9456 42.2799C62.9656 42.2799 61.3156 41.8399 59.9956 40.9599C58.6956 40.0799 57.7256 38.9599 57.0856 37.5999C56.4456 36.2399 56.1256 34.8499 56.1256 33.4299ZM62.2756 33.0099C62.2756 34.2299 62.6256 35.2699 63.3256 36.1299C64.0256 36.9699 65.0256 37.3899 66.3256 37.3899C67.4456 37.3899 68.6356 37.0799 69.8956 36.4599C71.1556 35.8399 72.3156 34.9299 73.3756 33.7299V28.0599C72.4756 27.9599 71.5556 27.8899 70.6156 27.8499C69.6956 27.8099 68.8156 27.7899 67.9756 27.7899C66.1556 27.7899 64.7456 28.2499 63.7456 29.1699C62.7656 30.0899 62.2756 31.3699 62.2756 33.0099ZM89.0713 6.6399C89.0713 5.2599 89.3013 4.2599 89.7613 3.6399C90.2213 2.9999 91.1113 2.6799 92.4313 2.6799H94.7713L95.1313 3.0699V11.9199L102.571 11.8299C102.751 12.6099 102.841 13.3599 102.841 14.0799C102.841 14.8999 102.751 15.6699 102.571 16.3899L95.1313 16.2999V34.2399C95.1313 35.0399 95.3213 35.6799 95.7013 36.1599C96.0813 36.6199 96.7213 36.8499 97.6213 36.8499H101.731C102.071 37.7699 102.241 38.8099 102.241 39.9699C102.241 40.2099 102.231 40.4499 102.211 40.6899C102.211 40.9099 102.181 41.1199 102.121 41.3199C101.121 41.4399 100.051 41.5399 98.9113 41.6199C97.7713 41.7199 96.6113 41.7699 95.4313 41.7699C91.1913 41.7699 89.0713 39.7099 89.0713 35.5899V16.3299L84.6913 16.3899C84.5113 15.6699 84.4213 14.8999 84.4213 14.0799C84.4213 13.3599 84.5113 12.6099 84.6913 11.8299L89.0713 11.8899V6.6399ZM105.473 39.3099C105.493 38.6099 105.703 37.8299 106.103 36.9699C106.503 36.1099 106.973 35.4399 107.513 34.9599C108.773 35.6599 110.123 36.2799 111.563 36.8199C113.003 37.3599 114.463 37.6299 115.943 37.6299C117.583 37.6299 118.873 37.2799 119.813 36.5799C120.773 35.8799 121.263 34.9799 121.283 33.8799C121.283 32.0799 120.033 30.7199 117.533 29.7999L114.053 28.5099C111.973 27.7499 110.183 26.6999 108.683 25.3599C107.183 24.0199 106.433 22.2199 106.433 19.9599C106.433 18.1199 106.893 16.5399 107.813 15.2199C108.753 13.8999 110.023 12.8899 111.623 12.1899C113.223 11.4699 115.033 11.1099 117.053 11.1099C118.673 11.1099 120.393 11.3199 122.213 11.7399C124.053 12.1599 125.593 12.6699 126.833 13.2699C126.853 14.0299 126.693 14.8599 126.353 15.7599C126.013 16.6599 125.573 17.3399 125.033 17.7999C123.973 17.3399 122.743 16.8999 121.343 16.4799C119.943 16.0599 118.503 15.8499 117.023 15.8499C115.703 15.8499 114.643 16.1699 113.843 16.8099C113.063 17.4299 112.673 18.2699 112.673 19.3299C112.673 20.1699 112.973 20.8699 113.573 21.4299C114.193 21.9899 115.133 22.4999 116.393 22.9599L120.083 24.3099C122.323 25.1299 124.153 26.2699 125.573 27.7299C126.993 29.1699 127.703 31.0399 127.703 33.3399C127.703 36.1199 126.623 38.3099 124.463 39.9099C122.323 41.4899 119.483 42.2799 115.943 42.2799C113.823 42.2799 111.873 41.9799 110.093 41.3799C108.313 40.7799 106.773 40.0899 105.473 39.3099Z" fill="#009CBF"/>
<path d="M32.711 56.8239C32.711 57.6519 32.489 58.3539 32.045 58.9299C31.601 59.4999 31.052 59.8899 30.398 60.0999C30.698 60.2079 30.953 60.4029 31.163 60.6849C31.379 60.9609 31.55 61.2759 31.676 61.6299L32.468 63.7359C32.6 64.0899 32.726 64.3629 32.846 64.5549C32.972 64.7469 33.116 64.9059 33.278 65.0319C33.152 65.2239 32.963 65.3709 32.711 65.4729C32.465 65.5749 32.222 65.6259 31.982 65.6259C31.622 65.6259 31.358 65.5269 31.19 65.3289C31.022 65.1309 30.866 64.8399 30.722 64.4559L29.822 62.0169C29.672 61.6029 29.471 61.2579 29.219 60.9819C28.967 60.6999 28.562 60.5589 28.004 60.5589H26.537V65.4999C26.387 65.5299 26.225 65.5479 26.051 65.5539C25.883 65.5659 25.724 65.5719 25.574 65.5719C25.436 65.5719 25.277 65.5659 25.097 65.5539C24.923 65.5479 24.767 65.5299 24.629 65.4999V53.3049L24.746 53.1969C25.424 53.1849 26.087 53.1729 26.735 53.1609C27.383 53.1429 28.013 53.1339 28.625 53.1339C29.873 53.1339 30.866 53.4489 31.604 54.0789C32.342 54.7089 32.711 55.6239 32.711 56.8239ZM26.537 54.6369V59.0289C26.885 59.0169 27.242 59.0079 27.608 59.0019C27.974 58.9959 28.28 58.9929 28.526 58.9929C29.114 58.9929 29.567 58.8849 29.885 58.6689C30.203 58.4529 30.422 58.1799 30.542 57.8499C30.662 57.5139 30.722 57.1719 30.722 56.8239C30.722 56.4579 30.662 56.1099 30.542 55.7799C30.422 55.4499 30.203 55.1799 29.885 54.9699C29.567 54.7599 29.114 54.6549 28.526 54.6549C28.268 54.6549 27.947 54.6549 27.563 54.6549C27.185 54.6489 26.843 54.6429 26.537 54.6369ZM43.1435 63.8889C43.1435 64.4709 43.0535 64.8879 42.8735 65.1399C42.6935 65.3919 42.3635 65.5179 41.8835 65.5179H36.5285C36.1925 65.5179 35.9255 65.4129 35.7275 65.2029C35.5355 64.9929 35.4395 64.7049 35.4395 64.3389V53.3229L35.5475 53.2059H42.7925C42.8225 53.3499 42.8405 53.4879 42.8465 53.6199C42.8525 53.7459 42.8555 53.8629 42.8555 53.9709C42.8555 54.0789 42.8435 54.2139 42.8195 54.3759C42.7955 54.5319 42.7565 54.6819 42.7025 54.8259H38.4365C38.3045 54.8259 38.1335 54.8259 37.9235 54.8259C37.7195 54.8259 37.5125 54.8229 37.3025 54.8169C37.3025 55.0569 37.3055 55.2549 37.3115 55.4109C37.3175 55.5669 37.3205 55.7649 37.3205 56.0049V58.5069C37.5305 58.5069 37.7345 58.5069 37.9325 58.5069C38.1365 58.5009 38.3045 58.4979 38.4365 58.4979H41.8205C41.8505 58.6239 41.8745 58.7619 41.8925 58.9119C41.9105 59.0619 41.9195 59.1879 41.9195 59.2899C41.9195 59.3979 41.9105 59.5269 41.8925 59.6769C41.8745 59.8209 41.8505 59.9589 41.8205 60.0909H38.4365C38.3045 60.0909 38.1365 60.0909 37.9325 60.0909C37.7345 60.0849 37.5305 60.0789 37.3205 60.0729V63.0159C37.3205 63.1779 37.3175 63.3279 37.3115 63.4659C37.3055 63.6039 37.3025 63.7569 37.3025 63.9249C37.4765 63.9129 37.6595 63.9039 37.8515 63.8979C38.0435 63.8919 38.2565 63.8889 38.4905 63.8889H43.1435ZM44.5549 64.3929C44.5789 64.1109 44.6689 63.8349 44.8249 63.5649C44.9869 63.2889 45.1639 63.0729 45.3559 62.9169C45.8779 63.2589 46.4569 63.5469 47.0929 63.7809C47.7289 64.0149 48.3559 64.1319 48.9739 64.1319C49.6999 64.1319 50.2639 63.9759 50.6659 63.6639C51.0679 63.3459 51.2689 62.9379 51.2689 62.4399C51.2689 62.0199 51.1279 61.6479 50.8459 61.3239C50.5639 60.9939 50.1589 60.7179 49.6309 60.4959L47.4619 59.5869C46.6999 59.2689 46.0939 58.8609 45.6439 58.3629C45.1999 57.8589 44.9779 57.2229 44.9779 56.4549C44.9779 55.8009 45.1489 55.2129 45.4909 54.6909C45.8389 54.1629 46.3189 53.7459 46.9309 53.4399C47.5429 53.1279 48.2509 52.9719 49.0549 52.9719C49.8049 52.9719 50.5099 53.0679 51.1699 53.2599C51.8299 53.4519 52.3939 53.6649 52.8619 53.8989C52.8559 54.1749 52.7869 54.4509 52.6549 54.7269C52.5289 54.9969 52.3669 55.2219 52.1689 55.4019C51.6949 55.1679 51.1789 54.9699 50.6209 54.8079C50.0629 54.6399 49.5529 54.5559 49.0909 54.5559C48.4189 54.5559 47.8909 54.7179 47.5069 55.0419C47.1289 55.3659 46.9399 55.7649 46.9399 56.2389C46.9399 56.6349 47.0779 56.9589 47.3539 57.2109C47.6299 57.4629 47.9899 57.6819 48.4339 57.8679L50.5849 58.7589C51.3529 59.0769 51.9919 59.5149 52.5019 60.0729C53.0179 60.6309 53.2759 61.3149 53.2759 62.1249C53.2759 62.8149 53.1139 63.4329 52.7899 63.9789C52.4719 64.5189 51.9859 64.9479 51.3319 65.2659C50.6779 65.5779 49.8559 65.7339 48.8659 65.7339C48.1159 65.7339 47.3599 65.6139 46.5979 65.3739C45.8359 65.1339 45.1549 64.8069 44.5549 64.3929ZM57.0252 56.1309C57.0252 55.8909 57.0252 55.6719 57.0252 55.4739C57.0252 55.2759 57.0252 55.0509 57.0252 54.7989C56.8992 54.7989 56.7252 54.8019 56.5032 54.8079C56.2812 54.8139 56.1072 54.8169 55.9812 54.8169H53.8482C53.8182 54.6789 53.7972 54.5409 53.7852 54.4029C53.7732 54.2649 53.7672 54.1359 53.7672 54.0159C53.7672 53.8959 53.7732 53.7669 53.7852 53.6289C53.7972 53.4909 53.8182 53.3499 53.8482 53.2059H62.1192C62.1912 53.4399 62.2272 53.6919 62.2272 53.9619C62.2272 54.2739 62.1402 54.4959 61.9662 54.6279C61.7922 54.7539 61.5222 54.8169 61.1562 54.8169H59.9772C59.8572 54.8169 59.6832 54.8139 59.4552 54.8079C59.2332 54.8019 59.0622 54.7989 58.9422 54.7989H58.9332C58.9332 55.0509 58.9332 55.2759 58.9332 55.4739C58.9392 55.6719 58.9422 55.8909 58.9422 56.1309V65.4999C58.7862 65.5299 58.6212 65.5479 58.4472 65.5539C58.2792 65.5659 58.1232 65.5719 57.9792 65.5719C57.8352 65.5719 57.6762 65.5659 57.5022 65.5539C57.3342 65.5479 57.1752 65.5299 57.0252 65.4999V56.1309ZM65.4612 62.5299C65.3952 62.5299 65.2422 62.5299 65.0022 62.5299C64.7682 62.5239 64.5732 62.5179 64.4172 62.5119L63.4632 65.5179C63.3432 65.5479 63.2112 65.5659 63.0672 65.5719C62.9232 65.5839 62.7792 65.5899 62.6352 65.5899C62.2812 65.5899 61.9692 65.5479 61.6992 65.4639L61.6452 65.3739L65.7042 53.2059C65.8542 53.1819 66.0372 53.1639 66.2532 53.1519C66.4692 53.1399 66.6582 53.1339 66.8202 53.1339C66.9702 53.1339 67.1532 53.1399 67.3692 53.1519C67.5852 53.1639 67.7592 53.1849 67.8912 53.2149L71.9322 65.3829C71.7942 65.4669 71.6232 65.5269 71.4192 65.5629C71.2212 65.6049 71.0202 65.6259 70.8162 65.6259C70.5102 65.6259 70.2732 65.5569 70.1052 65.4189C69.9372 65.2809 69.7932 65.0109 69.6732 64.6089L69.0072 62.5119C68.8512 62.5179 68.6502 62.5239 68.4042 62.5299C68.1582 62.5299 68.0022 62.5299 67.9362 62.5299H65.4612ZM65.9472 57.7059L64.9122 60.9549C65.0502 60.9549 65.2182 60.9519 65.4162 60.9459C65.6202 60.9399 65.7582 60.9369 65.8302 60.9369H67.6212C67.6872 60.9369 67.8132 60.9399 67.9992 60.9459C68.1912 60.9459 68.3622 60.9489 68.5122 60.9549L67.6842 58.3539C67.5222 57.8319 67.3542 57.2799 67.1802 56.6979C67.0122 56.1099 66.8682 55.5789 66.7482 55.1049H66.6492C66.5592 55.5069 66.4422 55.9599 66.2982 56.4639C66.1602 56.9619 66.0432 57.3759 65.9472 57.7059ZM82.5211 61.1799C82.5211 62.6679 82.1071 63.7989 81.2791 64.5729C80.4511 65.3469 79.3471 65.7339 77.9671 65.7339C76.5931 65.7339 75.4921 65.3469 74.6641 64.5729C73.8421 63.7989 73.4311 62.6679 73.4311 61.1799V53.2419L73.5481 53.1249H74.2771C74.6671 53.1249 74.9431 53.2239 75.1051 53.4219C75.2671 53.6199 75.3481 53.9319 75.3481 54.3579V61.1799C75.3481 63.1839 76.2241 64.1859 77.9761 64.1859C79.7281 64.1859 80.6041 63.1839 80.6041 61.1799V53.2059C80.7481 53.1759 80.9011 53.1579 81.0631 53.1519C81.2311 53.1399 81.3901 53.1339 81.5401 53.1339C81.6841 53.1339 81.8461 53.1399 82.0261 53.1519C82.2121 53.1579 82.3771 53.1759 82.5211 53.2059V61.1799ZM93.7071 56.8239C93.7071 57.6519 93.4851 58.3539 93.0411 58.9299C92.5971 59.4999 92.0481 59.8899 91.3941 60.0999C91.6941 60.2079 91.9491 60.4029 92.1591 60.6849C92.3751 60.9609 92.5461 61.2759 92.6721 61.6299L93.4641 63.7359C93.5961 64.0899 93.7221 64.3629 93.8421 64.5549C93.9681 64.7469 94.1121 64.9059 94.2741 65.0319C94.1481 65.2239 93.9591 65.3709 93.7071 65.4729C93.4611 65.5749 93.2181 65.6259 92.9781 65.6259C92.6181 65.6259 92.3541 65.5269 92.1861 65.3289C92.0181 65.1309 91.8621 64.8399 91.7181 64.4559L90.8181 62.0169C90.6681 61.6029 90.4671 61.2579 90.2151 60.9819C89.9631 60.6999 89.5581 60.5589 89.0001 60.5589H87.5331V65.4999C87.3831 65.5299 87.2211 65.5479 87.0471 65.5539C86.8791 65.5659 86.7201 65.5719 86.5701 65.5719C86.4321 65.5719 86.2731 65.5659 86.0931 65.5539C85.9191 65.5479 85.7631 65.5299 85.6251 65.4999V53.3049L85.7421 53.1969C86.4201 53.1849 87.0831 53.1729 87.7311 53.1609C88.3791 53.1429 89.0091 53.1339 89.6211 53.1339C90.8691 53.1339 91.8621 53.4489 92.6001 54.0789C93.3381 54.7089 93.7071 55.6239 93.7071 56.8239ZM87.5331 54.6369V59.0289C87.8811 59.0169 88.2381 59.0079 88.6041 59.0019C88.9701 58.9959 89.2761 58.9929 89.5221 58.9929C90.1101 58.9929 90.5631 58.8849 90.8811 58.6689C91.1991 58.4529 91.4181 58.1799 91.5381 57.8499C91.6581 57.5139 91.7181 57.1719 91.7181 56.8239C91.7181 56.4579 91.6581 56.1099 91.5381 55.7799C91.4181 55.4499 91.1991 55.1799 90.8811 54.9699C90.5631 54.7599 90.1101 54.6549 89.5221 54.6549C89.2641 54.6549 88.9431 54.6549 88.5591 54.6549C88.1811 54.6489 87.8391 54.6429 87.5331 54.6369ZM98.9826 62.5299C98.9166 62.5299 98.7636 62.5299 98.5236 62.5299C98.2896 62.5239 98.0946 62.5179 97.9386 62.5119L96.9846 65.5179C96.8646 65.5479 96.7326 65.5659 96.5886 65.5719C96.4446 65.5839 96.3006 65.5899 96.1566 65.5899C95.8026 65.5899 95.4906 65.5479 95.2206 65.4639L95.1666 65.3739L99.2256 53.2059C99.3756 53.1819 99.5586 53.1639 99.7746 53.1519C99.9906 53.1399 100.18 53.1339 100.342 53.1339C100.492 53.1339 100.675 53.1399 100.891 53.1519C101.107 53.1639 101.281 53.1849 101.413 53.2149L105.454 65.3829C105.316 65.4669 105.145 65.5269 104.941 65.5629C104.743 65.6049 104.542 65.6259 104.338 65.6259C104.032 65.6259 103.795 65.5569 103.627 65.4189C103.459 65.2809 103.315 65.0109 103.195 64.6089L102.529 62.5119C102.373 62.5179 102.172 62.5239 101.926 62.5299C101.68 62.5299 101.524 62.5299 101.458 62.5299H98.9826ZM99.4686 57.7059L98.4336 60.9549C98.5716 60.9549 98.7396 60.9519 98.9376 60.9459C99.1416 60.9399 99.2796 60.9369 99.3516 60.9369H101.143C101.209 60.9369 101.335 60.9399 101.521 60.9459C101.713 60.9459 101.884 60.9489 102.034 60.9549L101.206 58.3539C101.044 57.8319 100.876 57.2799 100.702 56.6979C100.534 56.1099 100.39 55.5789 100.27 55.1049H100.171C100.081 55.5069 99.9636 55.9599 99.8196 56.4639C99.6816 56.9619 99.5646 57.3759 99.4686 57.7059ZM110.284 57.9489C110.062 57.5049 109.855 57.0729 109.663 56.6529C109.477 56.2329 109.3 55.8339 109.132 55.4559L109.069 55.4649C109.093 55.8849 109.117 56.3529 109.141 56.8689C109.165 57.3789 109.183 57.8979 109.195 58.4259C109.213 58.9479 109.222 59.4309 109.222 59.8749V65.4999C109.06 65.5299 108.904 65.5479 108.754 65.5539C108.604 65.5659 108.466 65.5719 108.34 65.5719C108.22 65.5719 108.079 65.5659 107.917 65.5539C107.755 65.5479 107.596 65.5299 107.44 65.4999V53.2239C107.596 53.1939 107.788 53.1729 108.016 53.1609C108.25 53.1429 108.439 53.1339 108.583 53.1339C108.733 53.1339 108.913 53.1399 109.123 53.1519C109.339 53.1579 109.54 53.1759 109.726 53.2059L113.533 60.7479C113.761 61.2219 113.974 61.6839 114.172 62.1339C114.376 62.5779 114.565 62.9829 114.739 63.3489L114.802 63.3399C114.766 62.8599 114.736 62.3499 114.712 61.8099C114.694 61.2639 114.679 60.7329 114.667 60.2169C114.655 59.6949 114.649 59.2269 114.649 58.8129V54.3219C114.649 53.9019 114.721 53.5989 114.865 53.4129C115.015 53.2209 115.288 53.1249 115.684 53.1249H116.305L116.422 53.2329V65.4819C116.266 65.5119 116.077 65.5329 115.855 65.5449C115.633 65.5629 115.435 65.5719 115.261 65.5719C115.081 65.5719 114.892 65.5659 114.694 65.5539C114.496 65.5479 114.301 65.5299 114.109 65.4999L110.284 57.9489ZM121.537 56.1309C121.537 55.8909 121.537 55.6719 121.537 55.4739C121.537 55.2759 121.537 55.0509 121.537 54.7989C121.411 54.7989 121.237 54.8019 121.015 54.8079C120.793 54.8139 120.619 54.8169 120.493 54.8169H118.36C118.33 54.6789 118.309 54.5409 118.297 54.4029C118.285 54.2649 118.279 54.1359 118.279 54.0159C118.279 53.8959 118.285 53.7669 118.297 53.6289C118.309 53.4909 118.33 53.3499 118.36 53.2059H126.631C126.703 53.4399 126.739 53.6919 126.739 53.9619C126.739 54.2739 126.652 54.4959 126.478 54.6279C126.304 54.7539 126.034 54.8169 125.668 54.8169H124.489C124.369 54.8169 124.195 54.8139 123.967 54.8079C123.745 54.8019 123.574 54.7989 123.454 54.7989H123.445C123.445 55.0509 123.445 55.2759 123.445 55.4739C123.451 55.6719 123.454 55.8909 123.454 56.1309V65.4999C123.298 65.5299 123.133 65.5479 122.959 65.5539C122.791 65.5659 122.635 65.5719 122.491 65.5719C122.347 65.5719 122.188 65.5659 122.014 65.5539C121.846 65.5479 121.687 65.5299 121.537 65.4999V56.1309Z" fill="black"/>
<path d="M5 25.4999C7.76142 25.4999 10 23.2613 10 20.4999C10 17.7385 7.76142 15.4999 5 15.4999C2.23858 15.4999 0 17.7385 0 20.4999C0 23.2613 2.23858 25.4999 5 25.4999Z" fill="#E78200"/>
<path d="M145 25.4999C147.761 25.4999 150 23.2613 150 20.4999C150 17.7385 147.761 15.4999 145 15.4999C142.239 15.4999 140 17.7385 140 20.4999C140 23.2613 142.239 25.4999 145 25.4999Z" fill="#E78200"/>
</svg>
